
        <svg xmlns="http://www.w3.org/2000/svg" xmlns:xlink="http://www.w3.org/1999/xlink" version="1.1" width="3181.8181818181824" 
        height="1127.2727272727273" viewBox="0 0 3181.8181818181824 1127.2727272727273">
			
			<g transform="scale(9.090909090909092) translate(10, 10)">
				<defs id="SvgjsDefs5517"></defs><g id="SvgjsG5518" featureKey="symbolGroupContainer" transform="matrix(1,0,0,1,0,0)" fill="#f1c40f"><rect xmlns="http://www.w3.org/2000/svg" width="110" height="104" rx="10" ry="10"></rect></g><g id="SvgjsG5519" featureKey="pxMwYC-0" transform="matrix(0.9055698570814662,0,0,0.9055698570814662,9.583861867986553,4.571629572515645)" fill="#111111"><g xmlns="http://www.w3.org/2000/svg"><path d="M87.425,52.248c-2.144-3.288-4.603-4.256-6.845-4.117c-2.162-0.139-4.701,0.829-6.845,4.117   c-5.404,8.286,6.845,22.697,6.845,22.697S92.829,60.534,87.425,52.248z M80.58,58.853c-2.023,0-3.663-1.613-3.663-3.603   c0-1.99,1.64-3.603,3.663-3.603c2.023,0,3.663,1.613,3.663,3.603C84.243,57.24,82.603,58.853,80.58,58.853z"></path><path d="M26.569,21.167c-2.144-3.288-4.603-4.256-6.845-4.117c-2.162-0.139-4.701,0.829-6.845,4.117   c-5.404,8.286,6.845,22.697,6.845,22.697S31.972,29.453,26.569,21.167z M19.723,27.771c-2.023,0-3.663-1.613-3.663-3.603   c0-1.99,1.64-3.603,3.663-3.603c2.023,0,3.663,1.613,3.663,3.603C23.386,26.159,21.746,27.771,19.723,27.771z"></path><path d="M80.58,74.75c-2.09,0-3.931,1.025-5.092,2.585L46.233,47.227l-19.527,3.281c0.003-0.08,0.024-0.156,0.024-0.236   c0-3.51-2.856-6.364-6.365-6.364s-6.364,2.854-6.364,6.364c0,3.51,2.854,6.364,6.364,6.364c2.266,0,4.245-1.198,5.373-2.985   L45.2,50.38l29.096,29.944c-0.033,0.262-0.08,0.52-0.08,0.79c0,3.51,2.854,6.364,6.364,6.364c3.51,0,6.365-2.854,6.365-6.364   S84.09,74.75,80.58,74.75z M20.365,53.698c-1.889,0-3.426-1.537-3.426-3.426s1.537-3.426,3.426-3.426   c1.89,0,3.428,1.537,3.428,3.426S22.256,53.698,20.365,53.698z M80.58,84.54c-1.889,0-3.426-1.537-3.426-3.426   c0-1.889,1.537-3.426,3.426-3.426c1.89,0,3.428,1.537,3.428,3.426C84.008,83.003,82.47,84.54,80.58,84.54z"></path></g></g><g id="SvgjsG5520" featureKey="Vx5QiU-0" transform="matrix(3.3167496273711303,0,0,3.3167496273711303,129.27031419631064,10.089550114336536)" fill="#ecf0f1"><path d="M11.04 14.76 q0 1.7 -0.71 2.94 t-1.99 1.91 t-2.98 0.67 q-1.76 0 -3.1 -0.84 t-2.04 -2.36 l2.88 -1.22 q0.32 0.68 0.87 1.15 t1.39 0.47 q1.46 0 1.98 -0.82 t0.52 -1.9 l0 -9.36 l3.18 0 l0 9.36 z M22.380000000000003 18.9 q-0.38 0.52 -1.31 0.93 t-2.03 0.41 q-1.7 0 -2.95 -0.76 t-1.91 -2.07 t-0.66 -2.91 t0.66 -2.91 t1.91 -2.07 t2.95 -0.76 q1.14 0 2.01 0.39 t1.33 0.99 l0 -1.14 l2.96 0 l0 11 l-2.96 0 l0 -1.1 z M21.68 12.25 q-0.82 -0.87 -2.2 -0.87 q-1.4 0 -2.21 0.87 t-0.81 2.25 q0 1.34 0.83 2.22 t2.19 0.88 q1.4 0 2.21 -0.83 t0.81 -2.27 q0 -1.38 -0.82 -2.25 z M28.28 15.54 l0 -6.5 l3.02 0 l0 6.5 q0 1.18 0.59 1.69 t1.55 0.51 q0.84 0 1.5 -0.65 t0.6 -2.23 l0 -5.82 l3 0 l0 10.96 l-3 0 l0 -0.94 q-0.54 0.56 -1.31 0.87 t-1.63 0.31 q-4.32 0 -4.32 -4.7 z M50.67 10.02 q1.03 1.22 1.03 3.48 l0 6.5 l-3.06 0 l0 -6.5 q0 -2.22 -2.12 -2.22 q-0.82 0 -1.48 0.65 t-0.62 2.25 l0 5.82 l-2.98 0 l0 -11 l2.98 0 l0 0.98 q0.54 -0.54 1.36 -0.86 t1.58 -0.32 q2.28 0 3.31 1.22 z M58.31999999999999 16.08 q0 0.7 0.24 1.17 t1.12 0.47 q0.4 0 0.76 -0.04 l0 2.52 q-0.72 0.08 -1.34 0.08 q-1.28 0 -2.07 -0.21 t-1.23 -0.81 t-0.44 -1.72 l0 -6.1 l-1.34 0 l0 -2.62 l1.34 0 l0 -2.94 l2.96 0 l0 2.94 l2.2 0 l0 2.62 l-2.2 0 l0 4.64 z"></path></g>
			</g>
		</svg>
	